<svg style="width:70%; height:70%;" viewBox="0 0 366 108" fill="none" xmlns="http://www.w3.org/2000/svg">
<g filter="url(#filter0_di)">
<circle cx="54" cy="52" r="47" fill="#044BB4"/>
<circle cx="54" cy="52" r="47" stroke="#E9FAFF" stroke-width="6"/>
<circle cx="54" cy="52" r="47" stroke="url(#paint0_linear)" stroke-width="6"/>
<path d="M36.7754 75H26.8145L49.0435 22.6318H59.4805L82.1855 75H71.7485L65.7793 60.7178H48.3843L51.7168 52.2949H62.2637L54.0239 32.6294L36.7754 75Z" fill="#FFFCFC"/>
</g>
<g filter="url(#filter1_d)">
<path class="disappear" d="M131.987 50.4023C130.466 49.4004 128.555 48.8994 126.254 48.8994C121.671 48.8994 119.379 51.4692 119.379 56.6089C119.379 62.7134 121.764 65.7656 126.532 65.7656C128.462 65.7656 130.28 65.4966 131.987 64.9585V50.4023ZM139.363 70.2466C134.891 71.4155 130.521 72 126.254 72C116.81 72 112.087 66.9346 112.087 56.8037C112.087 47.4521 116.708 42.7764 125.948 42.7764C127.915 42.7764 129.928 43.2402 131.987 44.168V32.2002H139.363V70.2466ZM146.321 72V42.7764H152.026L152.945 46.5059C155.505 44.0195 158.214 42.7764 161.072 42.7764V48.7324C158.326 48.7324 155.867 49.8735 153.696 52.1558V72H146.321ZM172.622 32.2002V38.0449H165.247V32.2002H172.622ZM172.622 42.7764V72H165.247V42.7764H172.622ZM178.216 62.8989C178.216 57.0913 182.447 54.1875 190.908 54.1875C192.893 54.1875 194.878 54.373 196.864 54.7441V52.5454C196.864 49.9292 194.98 48.6211 191.214 48.6211C188.022 48.6211 184.479 49.085 180.582 50.0127V44.168C184.479 43.2402 188.022 42.7764 191.214 42.7764C199.897 42.7764 204.239 45.9863 204.239 52.4062V72H199.953L197.337 69.3838C194.795 71.1279 191.993 72 188.932 72C181.788 72 178.216 68.9663 178.216 62.8989ZM196.864 59.7539C195.008 59.3828 193.023 59.1973 190.908 59.1973C187.364 59.1973 185.592 60.4033 185.592 62.8154C185.592 65.4131 187.076 66.7119 190.045 66.7119C192.494 66.7119 194.767 65.9512 196.864 64.4297V59.7539ZM211.225 72V42.7764H216.931L217.849 47.0625C220.651 44.2051 223.842 42.7764 227.423 42.7764C234.344 42.7764 237.805 46.376 237.805 53.5752V72H230.429V53.5752C230.429 50.3467 228.824 48.7324 225.614 48.7324C223.221 48.7324 220.883 49.688 218.601 51.5991V72H211.225ZM271.509 32.2002V38.6016H260.098V72H252.723V38.6016H241.312V32.2002H271.509ZM287.346 42.7764C296.215 42.7764 300.649 47.3037 300.649 56.3584C300.649 57.5645 300.566 58.7705 300.399 59.9766H281C281 64.0957 284.024 66.1553 290.073 66.1553C293.023 66.1553 295.974 65.877 298.924 65.3203V71.165C296.345 71.7217 293.209 72 289.517 72C278.922 72 273.625 67.0181 273.625 57.0542C273.625 47.5356 278.198 42.7764 287.346 42.7764ZM281 54.8555H293.469V54.6328C293.469 50.5879 291.428 48.5654 287.346 48.5654C283.449 48.5654 281.334 50.6621 281 54.8555ZM327.758 71.165C325.346 71.7217 322.841 72 320.243 72C309.853 72 304.657 66.9438 304.657 56.8315C304.657 47.4614 309.853 42.7764 320.243 42.7764C322.841 42.7764 325.346 43.0547 327.758 43.6113V49.4561C325.346 48.8994 323.026 48.6211 320.8 48.6211C314.955 48.6211 312.033 51.3579 312.033 56.8315C312.033 63.0474 314.955 66.1553 320.8 66.1553C323.026 66.1553 325.346 65.877 327.758 65.3203V71.165ZM332.628 72V32.2002H340.004V46.5059C342.305 44.0195 345.246 42.7764 348.827 42.7764C355.748 42.7764 359.208 46.376 359.208 53.5752V72H351.833V53.5752C351.833 50.3467 350.228 48.7324 347.018 48.7324C344.624 48.7324 342.286 49.688 340.004 51.5991V72H332.628Z" fill="#E9FAFF"/>
</g>
<defs>
<filter id="filter0_di" x="0" y="0" width="108" height="108" filterUnits="userSpaceOnUse" color-interpolation-filters="sRGB">
<feFlood flood-opacity="0" result="BackgroundImageFix"/>
<feColorMatrix in="SourceAlpha" type="matrix" values="0 0 0 0 0 0 0 0 0 0 0 0 0 0 0 0 0 0 127 0"/>
<feOffset dy="2"/>
<feGaussianBlur stdDeviation="2"/>
<feColorMatrix type="matrix" values="0 0 0 0 0 0 0 0 0 0 0 0 0 0 0 0 0 0 0.25 0"/>
<feBlend mode="normal" in2="BackgroundImageFix" result="effect1_dropShadow"/>
<feBlend mode="normal" in="SourceGraphic" in2="effect1_dropShadow" result="shape"/>
<feColorMatrix in="SourceAlpha" type="matrix" values="0 0 0 0 0 0 0 0 0 0 0 0 0 0 0 0 0 0 127 0" result="hardAlpha"/>
<feOffset dx="2" dy="6"/>
<feGaussianBlur stdDeviation="4"/>
<feComposite in2="hardAlpha" operator="arithmetic" k2="-1" k3="1"/>
<feColorMatrix type="matrix" values="0 0 0 0 0.00999999 0 0 0 0 0.6104 0 0 0 0 0.8 0 0 0 0.25 0"/>
<feBlend mode="normal" in2="shape" result="effect2_innerShadow"/>
</filter>
<filter id="filter1_d" x="111.087" y="32.2002" width="249.121" height="42.7998" filterUnits="userSpaceOnUse" color-interpolation-filters="sRGB">
<feFlood flood-opacity="0" result="BackgroundImageFix"/>
<feColorMatrix in="SourceAlpha" type="matrix" values="0 0 0 0 0 0 0 0 0 0 0 0 0 0 0 0 0 0 127 0"/>
<feOffset dy="2"/>
<feGaussianBlur stdDeviation="0.5"/>
<feColorMatrix type="matrix" values="0 0 0 0 0 0 0 0 0 0 0 0 0 0 0 0 0 0 0.25 0"/>
<feBlend mode="normal" in2="BackgroundImageFix" result="effect1_dropShadow"/>
<feBlend mode="normal" in="SourceGraphic" in2="effect1_dropShadow" result="shape"/>
</filter>
<linearGradient id="paint0_linear" x1="54" y1="2" x2="54" y2="102" gradientUnits="userSpaceOnUse">
<stop stop-color="white"/>
<stop offset="1" stop-color="white" stop-opacity="0"/>
</linearGradient>
</defs>
</svg>
